# Blender 4.4.1
# www.blender.org
mtllib Flying car Hitbox.mtl
o Cube
v 49.553909 28.385452 -42.935982
v 49.553909 28.385452 0.777325
v 49.553909 -131.331009 -42.935982
v 49.553909 -150.271210 0.777325
v -49.553909 28.385452 -42.935982
v -49.553909 28.385452 0.777325
v -49.553909 -131.331009 -42.935982
v -49.553909 -150.271210 0.777325
v 38.871063 126.205994 -27.338171
v 38.871063 126.205994 0.777325
v -38.871063 126.205994 -27.338171
v -38.871063 126.205994 0.777325
vn 1.0000 -0.0000 -0.0000
vn -0.0000 -0.9176 -0.3976
vn -1.0000 -0.0000 -0.0000
vn -0.0000 0.1575 -0.9875
vn -0.0000 -0.0000 -1.0000
vn -0.0000 -0.0000 1.0000
vn -0.0000 1.0000 -0.0000
vn -0.9941 0.1086 -0.0000
vn 0.9941 0.1086 -0.0000
vt 0.375000 0.000000
vt 0.625000 0.000000
vt 0.625000 0.250000
vt 0.375000 0.250000
vt 0.625000 0.500000
vt 0.375000 0.500000
vt 0.625000 0.750000
vt 0.375000 0.750000
vt 0.125000 0.750000
vt 0.125000 0.500000
vt 0.875000 0.500000
vt 0.875000 0.750000
vt 0.625000 1.000000
vt 0.375000 1.000000
s 0
f 1/1/1 2/2/1 4/3/1 3/4/1
f 3/4/2 4/3/2 8/5/2 7/6/2
f 7/6/3 8/5/3 6/7/3 5/8/3
f 1/9/4 5/8/4 11/8/4 9/9/4
f 3/10/5 7/6/5 5/8/5 1/9/5
f 8/5/6 4/11/6 2/12/6 6/7/6
f 11/8/7 12/7/7 10/13/7 9/14/7
f 6/7/6 2/12/6 10/12/6 12/7/6
f 5/8/8 6/7/8 12/7/8 11/8/8
f 2/2/9 1/1/9 9/1/9 10/2/9
o Cube.001
v -32.451797 -102.557701 24.972687
v -42.819389 -102.557701 0.777325
v -32.451797 -22.201576 24.972687
v -42.819389 -22.201576 0.777325
v 32.451797 -102.557701 24.972687
v 42.819389 -102.557701 0.777325
v 32.451797 -22.201576 24.972687
v 42.819389 -22.201576 0.777325
v -42.819389 25.832355 0.777325
v -42.819389 -125.123978 0.777325
v 42.819389 -125.123978 0.777325
v 42.819389 25.832355 0.777325
vn -0.9192 -0.0000 0.3939
vn 0.9192 -0.0000 0.3939
vn -0.0000 -0.0000 -1.0000
vn -0.0000 -0.0000 1.0000
vn -0.0000 -0.7313 0.6821
vn -0.0000 0.4499 0.8931
vt 0.375000 0.000000
vt 0.375000 0.250000
vt 0.625000 0.250000
vt 0.625000 0.000000
vt 0.625000 0.500000
vt 0.375000 0.500000
vt 0.375000 0.750000
vt 0.625000 0.750000
vt 0.875000 0.750000
vt 0.125000 0.500000
vt 0.125000 0.750000
vt 0.875000 0.500000
s 0
f 13/15/10 15/16/10 16/17/10 14/18/10
f 20/19/11 24/19/11 19/20/11
f 19/20/11 17/21/11 18/22/11 20/19/11
f 18/22/12 23/22/12 22/23/12 14/23/12
f 15/24/13 13/25/13 17/21/13 19/20/13
f 20/19/12 18/22/12 14/23/12 16/26/12
f 17/21/11 23/22/11 18/22/11
f 14/18/10 22/18/10 13/15/10
f 13/25/14 22/25/14 23/22/14 17/21/14
f 19/20/15 24/19/15 21/24/15 15/24/15
f 16/26/12 21/26/12 24/19/12 20/19/12
f 15/16/10 21/17/10 16/17/10
